<svg xmlns="http://www.w3.org/2000/svg" viewBox="0 0 206.19 121.32"><defs><style>.cls-1{fill:#280e5e;}</style></defs><g id="Layer_2" data-name="Layer 2"><g id="Layer_1-2" data-name="Layer 1"><path class="cls-1" d="M79.2,36.53A38.12,38.12,0,0,0,41.3,71.14H55.74a23.71,23.71,0,0,1,46.92,0h14.43A38.11,38.11,0,0,0,79.2,36.53Z"/><path class="cls-1" d="M206.18,95.55a62.1,62.1,0,0,0-1.56-12.85s0,0,0-.07c-.32-1.36-.68-2.71-1.1-4.07l-.15-.49c-.41-1.31-.86-2.6-1.37-3.89,0-.08-.06-.17-.1-.26-.56-1.4-1.15-2.78-1.83-4.14-6.47-13-20.71-28.52-51.71-28.8h0c-.6,0-1.31,0-2.05.05h-.05A77.91,77.91,0,0,0,77.72,0h0a77.74,77.74,0,0,0-74,101.44c.06.18.12.36.19.54l.71,1.71h0l7.24,17.63H198.49l2.13-2.89c3.62-4.89,5.69-13.28,5.56-22.7Zm-14.9,8.14a27.85,27.85,0,0,1-.79,3.38H21.42L17.2,96.82A63.46,63.46,0,0,1,135.48,51.45a7.09,7.09,0,0,0,2,2.55,6.36,6.36,0,0,0,1.84,1.09,7.15,7.15,0,0,0,3.59.48h.1c3.17-.28,4.59-.34,5.24-.33,1.47,0,2.83.14,4.22.24,1,.06,2,.09,3,.2,1.29.14,2.49.38,3.71.6.84.15,1.71.26,2.52.44,1.27.29,2.46.68,3.65,1.06.67.21,1.38.37,2,.61A37.51,37.51,0,0,1,171,60c.48.23,1,.42,1.48.67A37,37,0,0,1,176.15,63c.27.2.58.35.85.56a35,35,0,0,1,10.29,12.56c.29.58.52,1.17.77,1.76.33.74.68,1.48,1,2.23s.5,1.5.74,2.25.39,1.23.55,1.84c.22.8.4,1.6.56,2.39.11.52.21,1,.31,1.57.14.85.27,1.7.37,2.53,0,.37.08.73.11,1.09a44.69,44.69,0,0,1-.4,11.88Z"/></g></g></svg>