<svg xmlns="http://www.w3.org/2000/svg" viewBox="0 0 263.55 73.66"><defs><style>.cls-1{fill:#fff;}.cls-2{fill:#6453f3;}</style></defs><g id="Layer_2" data-name="Layer 2"><g id="Layer_1-2" data-name="Layer 1"><path class="cls-1" d="M16.19,50.53a20.71,20.71,0,0,0-5.38-2.2,19.19,19.19,0,0,1-3.87-1.47,3.33,3.33,0,0,1-1.4-1.27,3.52,3.52,0,0,1-.29-1.67c0-.79.12-2.87,4.93-2.87a10.61,10.61,0,0,1,3.15.51,13.26,13.26,0,0,1,3,1.4l1,.66,1.63-4.42-.68-.43a14.11,14.11,0,0,0-4.44-1.88,15.34,15.34,0,0,0-9.06.4,8.28,8.28,0,0,0-3.51,2.64A7,7,0,0,0,0,44.05a8.77,8.77,0,0,0,.68,3.69,7,7,0,0,0,2.64,3,17.74,17.74,0,0,0,5,2.12A30.8,30.8,0,0,1,11.86,54a7.7,7.7,0,0,1,1.82,1,2.05,2.05,0,0,1,.62.74,2.7,2.7,0,0,1,.16.9,4,4,0,0,1-1,2.93,4.61,4.61,0,0,1-3.37,1,11,11,0,0,1-2.6-.34,16.46,16.46,0,0,1-2.82-1,12.47,12.47,0,0,1-2.45-1.45l-1.31-1L0,62.14l.54.35a16.61,16.61,0,0,0,4.62,2,19.33,19.33,0,0,0,5.17.74,10.91,10.91,0,0,0,5.23-1.13A7.44,7.44,0,0,0,18.71,61a8.88,8.88,0,0,0,1-4.19A7.68,7.68,0,0,0,19,53.4,7.33,7.33,0,0,0,16.19,50.53Z"/><path class="cls-1" d="M39,60.62a7.65,7.65,0,0,1-1.88-2.11l-3.15-5,5.51-7.62-4.63-1.55L27,55.51V35.44l-4.91.9V62.79A2.24,2.24,0,0,0,23,64.68a2.27,2.27,0,0,0,1.85.38A3,3,0,0,0,26.52,64l4.56-6.45L33.17,61A9.58,9.58,0,0,0,36,64.07a8.54,8.54,0,0,0,3.22,1.39l.62.11,3.1-4.32-2,0A3,3,0,0,1,39,60.62Z"/><path class="cls-1" d="M55.27,56.24a4.77,4.77,0,0,1-.6,2.48,3.94,3.94,0,0,1-1.58,1.53,4.56,4.56,0,0,1-2.24.55,4.63,4.63,0,0,1-1.7-.32A2.26,2.26,0,0,1,48,59.53a4,4,0,0,1-.42-2.16l.1-4.1a33.28,33.28,0,0,0-.18-4.9,12.64,12.64,0,0,0-1.23-3.92L42.58,45l-1.34.24.63,1.22c0,.08.14.3.29.66a9.82,9.82,0,0,1,.48,2,23.59,23.59,0,0,1,.16,4.26l-.11,3.87a8.09,8.09,0,0,0,1.05,4.61,6.53,6.53,0,0,0,3,2.56,9.29,9.29,0,0,0,3.69.75,8.45,8.45,0,0,0,4.86-1.37v.77A4.18,4.18,0,0,1,53.89,68,5.51,5.51,0,0,1,50,69.23a9.54,9.54,0,0,1-2.43-.35A12.53,12.53,0,0,1,45.07,68l-1.25-.61-.61,4.89.74.27a18.16,18.16,0,0,0,3.16.84,17.83,17.83,0,0,0,3.17.31,10.86,10.86,0,0,0,5.14-1.17,8.66,8.66,0,0,0,3.5-3.31,9.44,9.44,0,0,0,1.26-4.91V44.56H55.27Z"/><path class="cls-1" d="M82.49,58.34A8.74,8.74,0,0,1,79.63,60a12.19,12.19,0,0,1-3.93.58A8.38,8.38,0,0,1,71,59.33,7.37,7.37,0,0,1,68.25,56a12.79,12.79,0,0,1-1-5.06,12.47,12.47,0,0,1,1-5.16,7.71,7.71,0,0,1,2.9-3.42A8.59,8.59,0,0,1,76,41.1a9.2,9.2,0,0,1,3.16.54,10,10,0,0,1,2.75,1.49l.87.66,2.47-3.94-.73-.55a16.45,16.45,0,0,0-3.61-2,14,14,0,0,0-5.25-.86,13.53,13.53,0,0,0-7.16,1.87,12.85,12.85,0,0,0-4.75,5.18,16.14,16.14,0,0,0-1.67,7.44,16.48,16.48,0,0,0,1.6,7.38,12.32,12.32,0,0,0,4.69,5.11,13.8,13.8,0,0,0,7.26,1.85,17,17,0,0,0,5.13-.73,12.61,12.61,0,0,0,4-2.15l.57-.46-1.82-4.46Z"/><path class="cls-1" d="M100,44.57a10.41,10.41,0,0,0-1.16-.28A11.17,11.17,0,0,0,97,44.17a6.06,6.06,0,0,0-3.66,1.2,7.61,7.61,0,0,0-1.23,1.09A16.85,16.85,0,0,0,91.24,45l-.41-.63L86,45.91,86.62,47a20.81,20.81,0,0,1,1.11,2.1,5.39,5.39,0,0,1,.45,2.3V64.85h4.9V53.72a5.49,5.49,0,0,1,1.15-3.9,3.61,3.61,0,0,1,2.68-1.15,5.93,5.93,0,0,1,1.48.13,7.47,7.47,0,0,1,.75.23l1.22.47.45-4.7Z"/><path class="cls-1" d="M116.37,45.49A10.7,10.7,0,0,0,111,44.17a11,11,0,0,0-5.44,1.32,9.35,9.35,0,0,0-3.69,3.74,11.3,11.3,0,0,0-1.3,5.51,11.12,11.12,0,0,0,1.31,5.47,9.43,9.43,0,0,0,3.69,3.72A11,11,0,0,0,111,65.24a10.65,10.65,0,0,0,5.36-1.33A9.31,9.31,0,0,0,120,60.18a12.46,12.46,0,0,0,0-11A9.37,9.37,0,0,0,116.37,45.49Zm-1.58,13.7A4.75,4.75,0,0,1,111,60.8a5,5,0,0,1-3.93-1.61,6.25,6.25,0,0,1-1.51-4.41,6.42,6.42,0,0,1,1.51-4.49A5,5,0,0,1,111,48.67a4.8,4.8,0,0,1,3.8,1.6,6.41,6.41,0,0,1,1.47,4.47A6.39,6.39,0,0,1,114.79,59.19Z"/><polygon class="cls-1" points="147.68 44.56 143.55 57.29 139.28 44.56 134.91 44.56 130.38 57.38 126.08 44.56 120.82 44.56 128.04 64.85 132.33 64.85 136.95 52.03 141.28 64.85 145.55 64.85 152.82 44.56 147.68 44.56"/><path class="cls-1" d="M172.61,61.88A7.67,7.67,0,0,1,172.1,60a18.85,18.85,0,0,1-.21-3.14V35.51l-4.93.6v9.43a9.72,9.72,0,0,0-1.59-.78,10.48,10.48,0,0,0-3.57-.59,8.88,8.88,0,0,0-5.18,1.47,9,9,0,0,0-3.18,3.92,13.34,13.34,0,0,0-1,5.36,12,12,0,0,0,1.15,5.35,8.86,8.86,0,0,0,3.32,3.66,9.23,9.23,0,0,0,4.92,1.31,9,9,0,0,0,4.35-1.06,7.33,7.33,0,0,0,1.62-1.2,7.7,7.7,0,0,0,1,1.74l.36.43,5-.71-.88-1.31A9.5,9.5,0,0,1,172.61,61.88ZM167,54.33a10.76,10.76,0,0,1-.52,3.49,4.45,4.45,0,0,1-1.52,2.2,4.59,4.59,0,0,1-2.82.78,4.07,4.07,0,0,1-2.4-.71,4.8,4.8,0,0,1-1.67-2,7.77,7.77,0,0,1-.63-3.24,9.32,9.32,0,0,1,.54-3.28,4.17,4.17,0,0,1,4.27-2.86,6,6,0,0,1,2.72.68,5.92,5.92,0,0,1,2,1.58Z"/><polygon class="cls-1" points="185.56 45.9 182.15 45.9 182.15 64.23 192.9 64.23 192.9 61.41 185.56 61.41 185.56 45.9"/><path class="cls-1" d="M208.28,45.9l-7.2,18.33h2.65a1.13,1.13,0,0,0,.73-.24,1.19,1.19,0,0,0,.4-.54l1.37-3.73h7.59l1.36,3.73a1.36,1.36,0,0,0,.42.56,1.2,1.2,0,0,0,.73.22H219l-7.2-18.33ZM207.1,57.31l2.23-6.07c.11-.28.22-.6.34-1s.23-.77.34-1.2c.12.43.24.83.37,1.2s.23.68.33,1l2.23,6.1Z"/><path class="cls-1" d="M238.26,54.76a5.84,5.84,0,0,0,1.46-.71,4.6,4.6,0,0,0,1-.93,3.78,3.78,0,0,0,.59-1.1,4.23,4.23,0,0,0,.19-1.24,5.19,5.19,0,0,0-.38-2,3.89,3.89,0,0,0-1.2-1.54,5.79,5.79,0,0,0-2.09-1,11.9,11.9,0,0,0-3.07-.35h-6.33V64.23h6.92a9.13,9.13,0,0,0,2.84-.41,6.13,6.13,0,0,0,2.09-1.12,4.64,4.64,0,0,0,1.29-1.7,5.16,5.16,0,0,0,.45-2.16Q242,55.61,238.26,54.76Zm-6.4-6.22h2.92a4.21,4.21,0,0,1,2.53.61,2.38,2.38,0,0,1,.81,2,2.28,2.28,0,0,1-.9,2,4.5,4.5,0,0,1-2.63.64h-2.73Zm6.63,11.3a2.12,2.12,0,0,1-.55.89,2.79,2.79,0,0,1-1,.61,4.86,4.86,0,0,1-1.59.23h-3.46V56.19h3.45a5.63,5.63,0,0,1,1.53.18,2.89,2.89,0,0,1,1,.51,2,2,0,0,1,.59.82,2.76,2.76,0,0,1,.2,1.07A3.12,3.12,0,0,1,238.49,59.84Z"/><path class="cls-1" d="M263.19,56.55a4.14,4.14,0,0,0-1-1.35,5.08,5.08,0,0,0-1.35-.91,15.82,15.82,0,0,0-1.55-.64l-1.56-.51a9.49,9.49,0,0,1-1.35-.54,3.06,3.06,0,0,1-1-.74,1.64,1.64,0,0,1-.36-1.08,2.37,2.37,0,0,1,.18-.93,2,2,0,0,1,.54-.73,2.55,2.55,0,0,1,.88-.47,3.87,3.87,0,0,1,1.24-.17,4.25,4.25,0,0,1,1.36.19,6,6,0,0,1,1,.44c.29.16.53.31.75.44a1.1,1.1,0,0,0,.57.19.75.75,0,0,0,.43-.11,1,1,0,0,0,.33-.39l.83-1.61a6.75,6.75,0,0,0-2.33-1.42,8.49,8.49,0,0,0-3-.51,7,7,0,0,0-2.55.44,5.85,5.85,0,0,0-1.88,1.18A5,5,0,0,0,252.31,49a4.9,4.9,0,0,0-.4,2,5.44,5.44,0,0,0,.36,2.11,4.18,4.18,0,0,0,1,1.43,4.89,4.89,0,0,0,1.35.92,12.78,12.78,0,0,0,1.55.61c.52.17,1,.32,1.54.47A7.42,7.42,0,0,1,259,57a3.1,3.1,0,0,1,1,.77,1.84,1.84,0,0,1,.36,1.18,2.48,2.48,0,0,1-.8,2,3.36,3.36,0,0,1-2.26.69,4.46,4.46,0,0,1-1.63-.26,6.38,6.38,0,0,1-1.17-.57c-.34-.21-.63-.41-.87-.58a1.27,1.27,0,0,0-.69-.26.8.8,0,0,0-.43.12,1.22,1.22,0,0,0-.34.3l-1,1.63a6.87,6.87,0,0,0,1.21,1,8.07,8.07,0,0,0,1.46.76,8.79,8.79,0,0,0,1.63.49,9,9,0,0,0,1.72.17,7.35,7.35,0,0,0,2.7-.46,5.85,5.85,0,0,0,2-1.27,5.36,5.36,0,0,0,1.24-1.89,6.33,6.33,0,0,0,.42-2.32A4.7,4.7,0,0,0,263.19,56.55Z"/><path class="cls-2" d="M31.58,12.69a13.25,13.25,0,0,0-13.17,12h5a8.24,8.24,0,0,1,16.31,0h5A13.25,13.25,0,0,0,31.58,12.69Z"/><path class="cls-2" d="M55.57,14.25l-.71,0a27,27,0,0,0-50,19.52,13.44,13.44,0,0,1,4.9-.85,22.06,22.06,0,0,1,41.34-15,2.49,2.49,0,0,0,2.56,1.44h0c.89-.07,1.51-.11,1.84-.11A15.32,15.32,0,0,1,70.84,33.68a15.14,15.14,0,0,1,4.8-.74h.12A20.28,20.28,0,0,0,55.57,14.25Z"/></g></g></svg>