<svg xmlns="http://www.w3.org/2000/svg" xmlns:xlink="http://www.w3.org/1999/xlink" viewBox="0 0 271.24 219.03"><defs><style>.cls-1{fill:url(#radial-gradient);}</style><radialGradient id="radial-gradient" cx="135.62" cy="109.52" r="123.26" gradientUnits="userSpaceOnUse"><stop offset="0" stop-color="#280e5e"/><stop offset="0.39" stop-color="#461f96"/><stop offset="0.8" stop-color="#6230cc"/><stop offset="1" stop-color="#6d36e1"/></radialGradient></defs><g id="Layer_2" data-name="Layer 2"><g id="Layer_1-2" data-name="Layer 1"><path class="cls-1" d="M165.24,219a48.73,48.73,0,0,1-15.64-2.56c-20.64-7-38.87-21.56-55.71-44.46-14-19-25.19-41.28-35.06-60.92-4.22-8.4-8.2-16.33-12.15-23.53C42.53,80,37.92,76.76,33,78c-5.28,1.28-8.89,6.43-8.93,8.17a12,12,0,0,1-24,1c-.28-6.88,2.45-14.06,7.69-20.25a38,38,0,0,1,18.49-12C42.5,50.36,58,58.25,67.76,76,71.91,83.58,76,91.7,80.31,100.29c19.11,38,40.76,81.09,77,93.42,8.93,3,19.74.45,27.52-6.59,3.41-3.09,11-11.59,8.22-23.83C189.68,148.6,172,136.55,159,127.76c-5.56-3.78-11.42-7.26-17.62-11-10.95-6.51-22.27-13.24-32.32-22C97.48,84.77,91.22,72.39,91.45,60A41.19,41.19,0,0,1,99,37.65c12.31-18,36.32-26.23,57.08-19.55,12.63,4.07,24.15,13.32,34.26,27.52a151.61,151.61,0,0,1,9.32,15.56C205.42,71.75,210.41,80.89,219,85c5.9,2.79,13.09,2,19.24-2.23s9.35-10.35,8.93-16.73c-1-14.64-18.67-26.29-34.3-36.56-4-2.65-7.82-5.15-11.32-7.68A12,12,0,0,1,215.65,2.29c3,2.21,6.63,4.56,10.42,7.06,9,5.93,19.25,12.66,27.67,20.93,10.91,10.72,16.6,21.88,17.41,34.13,1,15-6.27,29.25-19.4,38.19s-29.55,10.45-43,4.08c-15.66-7.41-23.37-21.53-30.17-34a132.07,132.07,0,0,0-7.8-13.13c-7-9.88-14.46-16.14-22-18.58-10.52-3.38-23.64,1.11-29.87,10.23a17.55,17.55,0,0,0-3.36,9.22c-.09,5.09,3.32,11,9.35,16.26,8.42,7.32,18.34,13.22,28.84,19.46,6.24,3.7,12.68,7.54,18.85,11.73,15.31,10.4,38.46,26.12,44,50,4,17.11-1.84,34.71-15.52,47.08A53.48,53.48,0,0,1,165.24,219Z"/></g></g></svg>