<svg xmlns="http://www.w3.org/2000/svg" xmlns:xlink="http://www.w3.org/1999/xlink" viewBox="0 0 356.48 284.99"><defs><style>.cls-1{fill:url(#radial-gradient);}</style><radialGradient id="radial-gradient" cx="178.24" cy="142.5" r="161.36" gradientUnits="userSpaceOnUse"><stop offset="0" stop-color="#280e5e"/><stop offset="0.33" stop-color="#401c8b"/><stop offset="1" stop-color="#6d36e1"/></radialGradient></defs><g id="Layer_2" data-name="Layer 2"><g id="Layer_1-2" data-name="Layer 1"><path class="cls-1" d="M36.1,285a99.46,99.46,0,0,1-20.29-2,12,12,0,0,1,5.32-23.45c.68.15,30.14,6.35,46.31-8.22,5.37-4.84,8.86-11.73,10.45-20.6q-2.81-.79-5.61-1.8C51,221.28,31,205.62,12.8,182.38c-7.09-9-11.15-17.83-12.42-26.87-1.4-10,1.1-19.56,6.85-26.26,7-8.1,18.28-11.86,30.32-10.06,19,2.85,35.28,14.29,47.1,33.1C96.87,171.72,100.79,193,102,203.93c.21,1.81.38,3.58.51,5.33a50.2,50.2,0,0,0,21.31-7.43q2.55-1.56,5.06-3.41-2.73-6-5.08-12.57c-5.88-16.46-10-35.28-12.08-55.95-3.65-35.46-1-73,6.53-93.5C125.19,17.69,141.7,3.63,160.35.6,175.72-1.9,190,3.49,199.57,15.39c13.6,17,23.22,53.68-8.18,132.4a249.05,249.05,0,0,1-13.25,28.31,147.39,147.39,0,0,1-19.2,27.23,74.11,74.11,0,0,0,9.87,12.1c17.58,17.23,40.76,19.85,70.86,8,29-11.37,52.9-17.34,71.19-17.75s31.39,4.57,39.11,14.77c5.64,7.45,7.67,17,5.88,27.49a55.56,55.56,0,0,1-10.48,23.71,12,12,0,0,1-19.15-14.53c5.89-7.77,7.95-17.71,4.58-22.16-2.68-3.55-9.75-5.47-19.4-5.25-15.46.35-36.64,5.76-62.95,16.09-20,7.86-38.61,10.5-55.23,7.85A74.86,74.86,0,0,1,152,232.6a95.12,95.12,0,0,1-11.15-13.16q-2.18,1.51-4.45,2.91a74,74,0,0,1-34.57,11.09c-2.36,15-8.51,27-18.41,35.86C69.13,282.09,50.27,285,36.1,285ZM31.78,142.8c-2.74,0-5.17.78-6.31,2.1s-1.71,4.25-1.28,7.26c.65,4.68,3.19,9.85,7.53,15.39C46.37,186.25,61.93,199,78,205.4c-2.79-21.75-15-58.09-44-62.43A15.27,15.27,0,0,0,31.78,142.8ZM167.6,24a21.14,21.14,0,0,0-3.39.28c-10.08,1.65-19.48,9.84-23.37,20.4-5.32,14.4-8.8,47.44-5.16,82.72,2,19.82,6,37.51,11.54,52.37a130,130,0,0,0,9.88-15.34,224.19,224.19,0,0,0,12-25.59c11.82-29.63,18.25-54.85,19.12-75,.46-10.52-.45-24.87-7.36-33.47A16.32,16.32,0,0,0,167.6,24Z"/></g></g></svg>