<svg xmlns="http://www.w3.org/2000/svg" xmlns:xlink="http://www.w3.org/1999/xlink" viewBox="0 0 393.82 213.52"><defs><style>.cls-1{fill:url(#linear-gradient);}</style><linearGradient id="linear-gradient" y1="106.76" x2="393.82" y2="106.76" gradientUnits="userSpaceOnUse"><stop offset="0" stop-color="#280e5e"/><stop offset="0.02" stop-color="#2d1168"/><stop offset="0.08" stop-color="#3e1b88"/><stop offset="0.15" stop-color="#4d23a4"/><stop offset="0.23" stop-color="#592abb"/><stop offset="0.33" stop-color="#6230cc"/><stop offset="0.44" stop-color="#6833d8"/><stop offset="0.6" stop-color="#6c35df"/><stop offset="1" stop-color="#6d36e1"/></linearGradient></defs><g id="Layer_2" data-name="Layer 2"><g id="Layer_1-2" data-name="Layer 1"><path class="cls-1" d="M305.65,213.52a12,12,0,0,1-8.78-20.22A541.12,541.12,0,0,0,337.55,143c23.49-33.24,35-60.37,31.66-74.44-.82-3.43-2.79-7.75-10.84-10.69-14.14-5.17-33.54,19.09-50.65,40.49-18.76,23.46-36.49,45.63-58,46.91-9.71.58-18.74-3.16-26.83-11.11-14.88-14.64-8.64-35.49-3.63-52.25,7.39-24.72,6.67-29.79-4.83-33.9-13-4.64-25.78,7.59-43.83,26.77-9.22,9.8-17.93,19.07-27.64,25-16.77,10.32-30.1,6.08-38.33.7C95.38,94.44,90.45,85.63,90,74.3c-.36-8.28,1.69-16.53,3.67-24.51,4.61-18.6,3.81-21.81-1.84-24.7-4.56-2.34-13.32-1.72-29.13,14.46C49.48,53,37.56,71.23,29.67,83.27c-4.5,6.87-6.76,10.27-8.75,12.47A12,12,0,0,1,3.11,79.6C4.06,78.5,7,74,9.56,70.1,18,57.28,30.66,37.9,45.45,22.76c8.89-9.1,17.18-15.3,25.36-19C85-2.55,96,.23,102.73,3.69c10.69,5.47,16.84,14.52,17.77,26.16.69,8.63-1.46,17.32-3.55,25.72-4.21,17-4.06,21.6.81,24.78,2.78,1.81,5.84,3.1,12.59-1,7-4.29,14.63-12.42,22.72-21,9-9.6,18.37-19.52,28.89-26.44,13.73-9,27.37-11.2,40.54-6.5C241.83,32.24,247,45.66,247.89,55.7c1,10.91-2.37,22.17-5.62,33.06-4.16,13.9-6.77,24.06-2.54,28.22,4.56,4.49,7.45,4.32,8.54,4.25,10.86-.64,27.4-21.31,40.68-37.92,10.6-13.26,21.56-27,33.19-36.61,15.37-12.76,30.34-16.61,44.48-11.45,17.53,6.41,23.8,18.59,26,27.69,5.27,22-6.36,52.83-35.56,94.1a555.82,555.82,0,0,1-42.59,52.67A12,12,0,0,1,305.65,213.52Z"/></g></g></svg>