<svg xmlns="http://www.w3.org/2000/svg" xmlns:xlink="http://www.w3.org/1999/xlink" viewBox="0 0 310.75 208.19"><defs><style>.cls-1{fill:url(#radial-gradient);}</style><radialGradient id="radial-gradient" cx="155.37" cy="104.09" r="132.24" gradientUnits="userSpaceOnUse"><stop offset="0" stop-color="#280e5e"/><stop offset="0.32" stop-color="#441e93"/><stop offset="0.63" stop-color="#5a2bbd"/><stop offset="0.86" stop-color="#6833d7"/><stop offset="1" stop-color="#6d36e1"/></radialGradient></defs><g id="Layer_2" data-name="Layer 2"><g id="Layer_1-2" data-name="Layer 1"><path class="cls-1" d="M203.76,208.19c-11.53,0-21.8-4.82-29.84-14a37.91,37.91,0,0,1-9.73-27.27c.35-8.24,3.11-16.9,8.44-26.48,8.84-15.88,23.68-32.19,38-48,10.77-11.83,20.93-23,28.25-33.49C245.79,49.11,249,41.39,248.53,36c-.19-2-1-5.17-6-8.9-4.44-3.35-7.57-3.32-9.8-2.92-16,2.86-37.31,36.16-54.44,62.91-10.18,15.89-20.71,32.32-31.22,45-13.51,16.26-25.53,24.47-37.83,25.83-7.14.79-17.93-.51-28.74-11.22-7.48-7.41-14.33-20.59-4.47-41.3,5.56-11.69,15.27-23.63,24.66-35.19,6.74-8.29,13.12-16.13,17.59-23.33,5.11-8.23,5.55-12.23,5.35-13.89-.06-.56-.2-1.73-2.49-3.48-1.72-1.31-3.5-2.67-9.41,1C105.2,34.59,97.6,42.61,89.55,51.1,78.88,62.35,67.85,74,55,81.47,38.27,91.19,21.84,91.65,6.14,82.84a12,12,0,0,1,11.76-21c8.19,4.6,15.67,4.25,25-1.18,9.89-5.76,19.72-16.12,29.22-26.13,9.15-9.65,17.79-18.76,27-24.47,16.53-10.25,29.06-5.48,36.66.32,6.79,5.18,10.86,12,11.78,19.76,2.13,17.95-12.58,36.05-28.16,55.22-8.5,10.45-17.28,21.26-21.61,30.34-4.59,9.66-1.92,12.31-.32,13.9,4.94,4.88,8,4.54,9.18,4.41,3.83-.42,10.75-3.77,22-17.3,9.56-11.51,19.68-27.31,29.47-42.58C180.78,38.73,202.22,5.26,228.52.55c9.9-1.78,19.77.78,28.53,7.39,9.28,7,14.47,15.7,15.41,25.85,2.24,24-20.23,48.68-44,74.84-13.42,14.76-27.3,30-34.79,43.47-8.41,15.11-5.53,21.75-1.6,26.26,3.75,4.3,7.72,6.08,12.88,5.75,7.49-.47,24.35-6,53.18-37.69a382,382,0,0,0,30.65-38.75,12,12,0,1,1,20,13.39,398.28,398.28,0,0,1-32.62,41.3c-26.41,29.1-49.84,44.49-69.65,45.74C205.54,208.16,204.65,208.19,203.76,208.19Z"/></g></g></svg>