<svg xmlns="http://www.w3.org/2000/svg" xmlns:xlink="http://www.w3.org/1999/xlink" viewBox="0 0 310.31 324.34"><defs><style>.cls-1{fill:url(#radial-gradient);}</style><radialGradient id="radial-gradient" cx="155.15" cy="162.17" r="158.7" gradientUnits="userSpaceOnUse"><stop offset="0" stop-color="#280e5e"/><stop offset="0.55" stop-color="#4f25a9"/><stop offset="1" stop-color="#6d36e1"/></radialGradient></defs><g id="Layer_2" data-name="Layer 2"><g id="Layer_1-2" data-name="Layer 1"><path class="cls-1" d="M0,48.42C-.2,61.82,1.69,75.25,8.67,87c12,20.18,34.8,30.35,56.8,35.58,13.6,3.23,27.69,5.34,41.69,5.15a135.2,135.2,0,0,0,36.94-5.75c12.57-3.79,24.65-9.19,36.39-15,12.45-6.19,25.15-12.47,36.29-20.85S238.26,68,245.2,55.86a48.3,48.3,0,0,0,6.21-16.53,36.59,36.59,0,0,0,.52-9.34,37.37,37.37,0,0,0-3-11.47C245,9.59,236.4,3.07,227,1.06,217-1.06,206.79.23,197.08,2.82A161.07,161.07,0,0,0,166.66,14.9a221.84,221.84,0,0,0-25.18,14.79A190.71,190.71,0,0,0,88.31,84.21c-12.55,19.59-21.1,41.92-23.23,65.16C64.1,160,65,171.28,69,181.29a62.26,62.26,0,0,0,7.44,14,71.43,71.43,0,0,0,9.89,11.16c11.27,10,24.8,16.23,39,21,2.87,1,5.7,2,8.56,3a154.54,154.54,0,0,0,19.63,5.19A159.39,159.39,0,0,0,193,238.49,157.32,157.32,0,0,0,260.38,219c16.24-9.08,31.56-21.54,41.6-37.4a66.94,66.94,0,0,0,5.5-11.09,43.19,43.19,0,0,0,2.63-11.17c1-8.52-2.14-17.15-6.18-24.51a49.26,49.26,0,0,0-21.24-20.54,66,66,0,0,0-30.42-6.26,116.58,116.58,0,0,0-33.54,6.2,198,198,0,0,0-35.55,16,263.91,263.91,0,0,0-35.41,24.47,174.76,174.76,0,0,0-15.29,13.75,185.59,185.59,0,0,0-14.62,17.19,183.5,183.5,0,0,0-31.31,65.16c-3,12.65-4.47,25.81-1.78,38.65a46,46,0,0,0,13.28,24,52.61,52.61,0,0,0,14.13,9.28c2.89,1.32,5.69,2,8.87,1.16a11.54,11.54,0,0,0,8-14.17c-.87-2.69-2.62-5.65-5.3-6.88a48,48,0,0,1-9.34-5.41l2.33,1.8a34.54,34.54,0,0,1-6.17-6.15l1.8,2.33a35.24,35.24,0,0,1-4.27-7.35l1.16,2.75a43.37,43.37,0,0,1-2.9-10.86l.41,3.06a68.34,68.34,0,0,1,.24-18.07l-.41,3.06a141.89,141.89,0,0,1,10.13-35.28l-1.16,2.75a175.82,175.82,0,0,1,22.69-39l-1.8,2.33a177,177,0,0,1,32-31.36l-2.33,1.8a225.49,225.49,0,0,1,49.53-29.53L212.92,141a132,132,0,0,1,33.18-9.54l-3.06.41a74.51,74.51,0,0,1,19.45-.22l-3.06-.41A49.67,49.67,0,0,1,272,134.55l-2.75-1.16a40.37,40.37,0,0,1,8.53,5l-2.33-1.8a38.73,38.73,0,0,1,6.86,6.86l-1.8-2.33a44.69,44.69,0,0,1,5.54,9.56l-1.16-2.75a34.91,34.91,0,0,1,2.64,8.5l-.42-3.06a22.7,22.7,0,0,1,0,6.05l.42-3.06A35.15,35.15,0,0,1,285,165l1.16-2.75a58.82,58.82,0,0,1-7.73,12.93l1.8-2.33a99.77,99.77,0,0,1-18,17.68l2.33-1.8A135.44,135.44,0,0,1,235,205.87l2.75-1.16a146.06,146.06,0,0,1-37.15,10.13l3.06-.41a146.86,146.86,0,0,1-38.62,0l3.06.41a153.58,153.58,0,0,1-30-7.22c-3.61-1.26-7.23-2.48-10.83-3.76-2.35-.83-4.67-1.72-7-2.69l2.75,1.17a87.1,87.1,0,0,1-19.27-11l2.33,1.8a61.39,61.39,0,0,1-10.92-10.81l1.8,2.33a52.71,52.71,0,0,1-6.63-11.33l1.16,2.75a54.78,54.78,0,0,1-3.7-13.71l.42,3.06a77.27,77.27,0,0,1,.32-20.21l-.42,3.06a127.17,127.17,0,0,1,9-32.17L96,118.84a160.39,160.39,0,0,1,20.68-35l-1.8,2.33A180.08,180.08,0,0,1,147,53.91l-2.34,1.8a207.48,207.48,0,0,1,33.65-20.92q5.47-2.74,11.1-5.13l-2.75,1.16c8.37-3.52,17.1-6.49,26.12-7.74l-3.06.41a45.61,45.61,0,0,1,12-.19l-3.06-.42a27,27,0,0,1,6.66,1.76l-2.75-1.16A20.66,20.66,0,0,1,226.94,26l-2.33-1.8A19.43,19.43,0,0,1,228,27.56l-1.8-2.33A22.77,22.77,0,0,1,229,30.15l-1.16-2.75a22.5,22.5,0,0,1,1.43,5.35l-.41-3.06a25.71,25.71,0,0,1,0,6.26l.41-3.06a35.44,35.44,0,0,1-2.46,8.8l1.16-2.76a59,59,0,0,1-7.75,12.89l1.8-2.33a101.89,101.89,0,0,1-18.06,17.64l2.33-1.8A148.33,148.33,0,0,1,186,78.1c-7.25,3.9-14.54,7.72-22,11.27-3.81,1.83-7.66,3.58-11.56,5.22l2.75-1.16A146.71,146.71,0,0,1,118.38,104l3.06-.42A130.36,130.36,0,0,1,87,103.37l3.07.42C77,102,63.81,99.08,51.63,94l2.75,1.16a77.8,77.8,0,0,1-17-9.67l2.33,1.8A54.92,54.92,0,0,1,30,77.68L31.77,80a47.57,47.57,0,0,1-6.14-10.49l1.16,2.75a53.05,53.05,0,0,1-3.55-13.33L23.65,62a91.9,91.9,0,0,1-.6-13.58c.1-6-5.36-11.79-11.52-11.52A11.73,11.73,0,0,0,0,48.42Z"/></g></g></svg>