<svg xmlns="http://www.w3.org/2000/svg" xmlns:xlink="http://www.w3.org/1999/xlink" viewBox="0 0 329.65 286.39"><defs><style>.cls-1{fill:url(#linear-gradient);}</style><linearGradient id="linear-gradient" y1="143.19" x2="329.65" y2="143.19" gradientUnits="userSpaceOnUse"><stop offset="0" stop-color="#280e5e"/><stop offset="0.08" stop-color="#39187f"/><stop offset="0.17" stop-color="#49219d"/><stop offset="0.27" stop-color="#5629b6"/><stop offset="0.39" stop-color="#612fc9"/><stop offset="0.52" stop-color="#6833d7"/><stop offset="0.69" stop-color="#6c35df"/><stop offset="1" stop-color="#6d36e1"/></linearGradient></defs><g id="Layer_2" data-name="Layer 2"><g id="Layer_1-2" data-name="Layer 1"><path class="cls-1" d="M39.12,265.42l-.94-.69,2.28,1.76a39.24,39.24,0,0,1-6.77-7l1.76,2.28a68.74,68.74,0,0,1-8.6-15L28,249.51a75.5,75.5,0,0,1-5.3-19.17l.4,3A62.81,62.81,0,0,1,23,217l-.41,3a53.07,53.07,0,0,1,3.57-13.27L25,209.37a51.57,51.57,0,0,1,6.6-11.3l-1.76,2.28a57.42,57.42,0,0,1,10-10l-2.28,1.76a42.09,42.09,0,0,1,8.81-5.28L43.75,188a31.67,31.67,0,0,1,8.1-2.25l-3,.4a30.78,30.78,0,0,1,7.79,0l-3-.41a40.23,40.23,0,0,1,9.79,2.77l-2.7-1.14c12.39,5.27,21.86,15,33.34,21.75a63.71,63.71,0,0,0,32.24,8.93c10.77-.12,22.32-3.8,29.5-12.23a38,38,0,0,0,8.35-16.31c1.71-7.61,1.38-15,.28-22.64-2.33-16.18-10.07-30.8-16.63-45.56q-1.24-2.79-2.43-5.59l1.14,2.7c-5.22-12.39-9.54-25.22-11.39-38.58l.4,3a64,64,0,0,1-.22-16.7l-.4,3a65.9,65.9,0,0,1,4.57-16.59l-1.13,2.69a69.89,69.89,0,0,1,8.85-15.18l-1.76,2.28a65.78,65.78,0,0,1,11.7-11.76l-2.28,1.77A58,58,0,0,1,167.39,25l-2.69,1.13a53.42,53.42,0,0,1,13.23-3.62l-3,.4a54.19,54.19,0,0,1,14.11,0l-3-.4a62.58,62.58,0,0,1,15.48,4.3l-2.7-1.14A66.61,66.61,0,0,1,213.37,34l-2.28-1.77a54.52,54.52,0,0,1,9.65,9.61L219,39.59a58.44,58.44,0,0,1,7.5,12.94l-1.14-2.69a75.82,75.82,0,0,1,5,19l-.41-3a112.75,112.75,0,0,1-.28,29.76l.4-3a128.91,128.91,0,0,1-4.52,20.74c-1,3.29-2.31,6.45-3.53,9.67a173.67,173.67,0,0,0-6.22,19.65c-4.75,19.08-6.19,39.89,2.32,58.11a39,39,0,0,0,9.41,12.82,46.83,46.83,0,0,0,24.83,10.7,30,30,0,0,0,12.38-1.09,36,36,0,0,0,12.43-7c5.49-4.47,9.6-10.89,12.58-17.25a116.51,116.51,0,0,0,7.18-20c1-3.94,1.75-8,2.79-11.9a28.26,28.26,0,0,1,1.17-3.35l-1.14,2.69a29.89,29.89,0,0,1,3.84-6.58l-1.76,2.28a25.79,25.79,0,0,1,4.47-4.45L304,159.37a23.63,23.63,0,0,1,4.71-2.76L306,157.75a23.76,23.76,0,0,1,6.14-1.66l-3,.4a29.64,29.64,0,0,1,7.41.08l-3-.41q.91.14,1.83.3a12.14,12.14,0,0,0,8.68-1.14,11.25,11.25,0,0,0,4-15.41c-1.51-2.34-3.88-4.66-6.73-5.18C312,133,302,133.61,293.78,139.09A37,37,0,0,0,280.29,155a51.64,51.64,0,0,0-3.14,9.66c-.71,3.21-1.45,6.41-2.3,9.57a107.65,107.65,0,0,1-4.54,13.43l1.14-2.7a56.45,56.45,0,0,1-7,12.46l1.76-2.28a31.4,31.4,0,0,1-5.46,5.53L263,198.9a23.12,23.12,0,0,1-5,3l2.69-1.13a21,21,0,0,1-5.32,1.43l3-.4a23.25,23.25,0,0,1-6,0l3,.4a32.87,32.87,0,0,1-8.18-2.35l2.69,1.14a36.19,36.19,0,0,1-7.75-4.29l2.28,1.76a26.07,26.07,0,0,1-4.59-4.68l1.76,2.28a36.86,36.86,0,0,1-4.64-8.11l1.13,2.69a51.93,51.93,0,0,1-3.38-12.79l.41,3a81.91,81.91,0,0,1,.23-21.56l-.41,3a136.57,136.57,0,0,1,4.63-20.86c1.93-6.39,4.48-12.52,6.69-18.81a121.88,121.88,0,0,0,5.5-23.38c3.17-22.7,2.18-47.66-10.78-67.43a63.45,63.45,0,0,0-12.39-14.16,80.34,80.34,0,0,0-21-12.38,66,66,0,0,0-42.2-3c-25.14,6.83-44.56,29.19-50.8,54.1A70,70,0,0,0,112.31,75a111,111,0,0,0,4,25.15C120.22,115,126.59,128.94,133,142.8c1.18,2.56,2.34,5.12,3.45,7.72l-1.14-2.69a102.68,102.68,0,0,1,7.56,25.77l-.4-3a49.94,49.94,0,0,1,.14,13l.4-3a32.38,32.38,0,0,1-2.08,7.85l1.13-2.69a25.13,25.13,0,0,1-3.14,5.46l1.76-2.28a24.19,24.19,0,0,1-4.19,4.21l2.28-1.77a25.56,25.56,0,0,1-5.64,3.26l2.69-1.14a31.27,31.27,0,0,1-7.78,2.07l3-.4a42.55,42.55,0,0,1-11.16-.09l3,.4a54.9,54.9,0,0,1-13.66-3.79l2.69,1.14C100.4,188,91.39,179,80.9,172.56c-6.35-3.92-13.48-7.34-20.91-8.47a45.7,45.7,0,0,0-15.39.11,42,42,0,0,0-12.94,4.88c-8.3,4.65-15.25,11.58-20.73,19.28a58.79,58.79,0,0,0-9.15,20.57,76.24,76.24,0,0,0,2.84,42.35A86.2,86.2,0,0,0,13,268.82a56.69,56.69,0,0,0,10.48,12.71c1.38,1.18,2.82,2.3,4.31,3.34,2.28,1.6,6.1,1.85,8.68,1.14a11.49,11.49,0,0,0,6.74-5.18,11.36,11.36,0,0,0,1.13-8.68,12.67,12.67,0,0,0-5.17-6.73Z"/></g></g></svg>