<svg xmlns="http://www.w3.org/2000/svg" xmlns:xlink="http://www.w3.org/1999/xlink" viewBox="0 0 364.32 212.51"><defs><style>.cls-1{fill:url(#linear-gradient);}</style><linearGradient id="linear-gradient" y1="106.25" x2="364.32" y2="106.25" gradientUnits="userSpaceOnUse"><stop offset="0" stop-color="#280e5e"/><stop offset="0.02" stop-color="#2d1167"/><stop offset="0.08" stop-color="#3e1b88"/><stop offset="0.16" stop-color="#4d23a4"/><stop offset="0.24" stop-color="#592aba"/><stop offset="0.33" stop-color="#6230cc"/><stop offset="0.45" stop-color="#6833d8"/><stop offset="0.61" stop-color="#6c35df"/><stop offset="1" stop-color="#6d36e1"/></linearGradient></defs><g id="Layer_2" data-name="Layer 2"><g id="Layer_1-2" data-name="Layer 1"><path class="cls-1" d="M12,212.51A12,12,0,0,1,.53,197a351.73,351.73,0,0,1,28-63.91c10.87-19.13,22.65-34.77,35-46.5,16.34-15.51,33.82-24.31,52-26.15C163.61,55.55,183.08,81.1,196,98c5.19,6.81,9.69,12.73,13.93,14.17,10.22,1.24,12-2.54,16.51-22.2,2.1-9.06,4.47-19.33,9.57-28.41a44.86,44.86,0,0,1,28.77-22.21c22.11-5.77,35,.66,44.35,5.35,7.34,3.66,9.48,4.53,14.73,2.18,10.53-4.71,15.66-26.2,16.5-35.87a12,12,0,1,1,23.95,2c-.37,4.47-4.36,44.06-30.63,55.81-15.85,7.09-27.09,1.48-35.29-2.62-7.6-3.8-14.17-7.08-27.54-3.59-13.58,3.54-16.82,14.76-21,32.78-2.28,9.86-4.64,20.06-10.38,28-7.5,10.37-18.83,14.58-33.67,12.5l-.66-.09-.65-.17c-12.49-3.18-20.18-13.28-27.62-23-5.92-7.77-12-15.81-20.86-21.33-10-6.24-22.4-8.5-38.05-6.91-16.49,1.67-41.75,13.54-68.5,60.6A331.82,331.82,0,0,0,23.52,204,12,12,0,0,1,12,212.51Z"/></g></g></svg>